<svg fill="none" height="90" viewBox="0 0 90 90" width="90" xmlns="http://www.w3.org/2000/svg"><path d="m45 0c-5.4873 0-10 4.51269-10 10 0 5.4873 4.5127 10 10 10s10-4.5127 10-10c0-5.48731-4.5127-10-10-10zm0 6c2.2447 0 4 1.75533 4 4 0 2.2447-1.7553 4-4 4s-4-1.7553-4-4c0-2.24467 1.7553-4 4-4zm-25 4c-5.4873 0-10 4.5127-10 10s4.5127 10 10 10 10-4.5127 10-10-4.5127-10-10-10zm50 0c-5.4873 0-10 4.5127-10 10s4.5127 10 10 10 10-4.5127 10-10-4.5127-10-10-10zm-50 6c2.2447 0 4 1.7553 4 4s-1.7553 4-4 4-4-1.7553-4-4 1.7553-4 4-4zm50 0c2.2447 0 4 1.7553 4 4s-1.7553 4-4 4-4-1.7553-4-4 1.7553-4 4-4zm-60 19c-5.48731 0-10 4.5127-10 10s4.51269 10 10 10c5.4873 0 10-4.5127 10-10s-4.5127-10-10-10zm35 0c-5.4873 0-10 4.5127-10 10s4.5127 10 10 10 10-4.5127 10-10-4.5127-10-10-10zm35 0c-5.4873 0-10 4.5127-10 10s4.5127 10 10 10 10-4.5127 10-10-4.5127-10-10-10zm-70 6c2.2447 0 4 1.7553 4 4s-1.7553 4-4 4c-2.24467 0-4-1.7553-4-4s1.75533-4 4-4zm35 0c2.2447 0 4 1.7553 4 4s-1.7553 4-4 4-4-1.7553-4-4 1.7553-4 4-4zm35 0c2.2447 0 4 1.7553 4 4s-1.7553 4-4 4-4-1.7553-4-4 1.7553-4 4-4zm-60 19c-5.4873 0-10 4.5127-10 10s4.5127 10 10 10 10-4.5127 10-10-4.5127-10-10-10zm50 0c-5.4873 0-10 4.5127-10 10s4.5127 10 10 10 10-4.5127 10-10-4.5127-10-10-10zm-50 6c2.2447 0 4 1.7553 4 4s-1.7553 4-4 4-4-1.7553-4-4 1.7553-4 4-4zm50 0c2.2447 0 4 1.7553 4 4s-1.7553 4-4 4-4-1.7553-4-4 1.7553-4 4-4zm-25 4c-5.4873 0-10 4.5127-10 10s4.5127 10 10 10 10-4.5127 10-10-4.5127-10-10-10zm0 6c2.2447 0 4 1.7553 4 4s-1.7553 4-4 4-4-1.7553-4-4 1.7553-4 4-4z" fill="#4d5362"/></svg>