<?xml version="1.0" encoding="UTF-8"?>
<svg width="104px" height="36px" viewBox="0 0 104 36" version="1.1" xmlns="http://www.w3.org/2000/svg" xmlns:xlink="http://www.w3.org/1999/xlink">
    <title>logo-django</title>
    <g id="Page-1" stroke="none" stroke-width="1" fill="none" fill-rule="evenodd">
        <g id="logo-django" fill="#6B7280" fill-rule="nonzero">
            <path d="M12.2602817,0 L17.9509859,0 L17.9509859,26.0824248 C15.0360563,26.6338042 12.8901408,26.8507285 10.5684507,26.8507285 C3.6180282,26.8434735 0,23.7383366 0,17.7747325 C0,12.0287781 3.8377465,8.2997118 9.7847887,8.2997118 C10.7076056,8.2997118 11.4107042,8.3722617 12.2602817,8.5899115 L12.2602817,0 L12.2602817,0 Z M12.2602817,13.1242821 C11.5938028,12.9066323 11.044507,12.8340823 10.3414085,12.8340823 C7.4630986,12.8340823 5.8005634,14.5897906 5.8005634,17.6666331 C5.8005634,20.6622196 7.3898592,22.316358 10.3047887,22.316358 C10.9346479,22.316358 11.4473239,22.2808085 12.2602817,22.1719836 L12.2602817,13.1242821 L12.2602817,13.1242821 Z M26.9960563,8.6987364 L26.9960563,21.7577235 C26.9960563,26.2550936 26.6591549,28.417807 25.6704225,30.2823401 C24.7476056,32.0750489 23.531831,33.2053768 21.0197183,34.453961 L15.7391549,31.9654985 C18.2512676,30.7981701 19.4670423,29.7665101 20.2433803,28.1921767 C21.056338,26.5822938 21.3126761,24.7177606 21.3126761,19.8133855 L21.3126761,8.6987364 L26.9960563,8.6987364 Z M21.3126761,0.02901997 L27.0033803,0.02901997 L27.0033803,5.8112493 L21.3126761,5.8112493 L21.3126761,0.02901997 Z M30.4302535,9.9828702 C32.9430986,8.8148163 35.3453521,8.2997118 37.9673239,8.2997118 C40.8895775,8.2997118 42.8077183,9.0687411 43.6580282,10.5705246 C44.1340845,11.4121037 44.2878873,12.5076077 44.2878873,14.8509704 L44.2878873,26.2993491 C41.7398873,26.6620987 38.5239437,26.922553 36.1649014,26.922553 C31.3970141,26.922553 29.2584225,25.2756696 29.2584225,21.6198787 C29.2584225,17.6659076 32.1008451,15.8376494 39.079831,15.2565245 L39.079831,14.0159207 C39.079831,12.9929667 38.559831,12.6229621 37.124338,12.6229621 C35.0223662,12.6229621 32.6567324,13.2106165 30.4375775,14.3423954 L30.4302535,9.9828702 Z M39.336169,18.9420608 C35.571662,19.3048105 34.3485634,19.8931904 34.3485634,21.3579734 C34.3485634,22.4549284 35.051662,22.9693073 36.604338,22.9693073 C37.4539155,22.9693073 38.2302535,22.8967574 39.3354366,22.7153826 L39.3354366,18.9420608 L39.336169,18.9420608 Z M47.056338,9.5765906 C50.4180282,8.6987364 53.1857465,8.2997118 55.9908169,8.2997118 C58.9057465,8.2997118 61.0157746,8.9599162 62.2674366,10.2367949 C63.4458592,11.4411237 63.8208451,12.7615324 63.8208451,15.5764696 L63.8208451,26.6258237 L58.1294085,26.6258237 L58.1294085,15.8013744 C58.1294085,13.6393866 57.3896901,12.8340823 55.3616901,12.8340823 C54.5846197,12.8340823 53.8822535,12.9066323 52.7397183,13.2403619 L52.7397183,26.6265492 L47.056338,26.6265492 L47.056338,9.5765906 Z M66.0326761,29.7012152 C68.0240563,30.7241692 70.0169014,31.1964692 72.1261972,31.1964692 C75.8540845,31.1964692 77.4433803,29.6946857 77.4433803,26.1107193 L77.4433803,26.0018944 C76.3374648,26.5460188 75.223493,26.7716491 73.7513803,26.7716491 C68.764507,26.7716491 65.5932394,23.5141573 65.5932394,18.3558574 C65.5932394,11.9496987 70.2878873,8.3294573 78.5932394,8.3294573 C81.0321127,8.3294573 83.2878873,8.583382 86.0189859,9.1347615 L84.0708169,13.1975575 C82.5562254,12.9073578 83.9463099,13.1540275 82.804507,13.0452026 L82.804507,13.6328571 L82.8777465,16.0124947 L82.9136338,19.0886117 C82.9509859,19.8583664 82.9509859,20.6259447 82.988338,21.3956994 L82.988338,22.9330324 C82.988338,27.7648576 82.5774648,30.0291409 81.3616901,31.900929 C79.5892958,34.6425908 76.5212958,36 72.1620845,36 C69.943662,36 68.0240563,35.6727998 66.0326761,34.9030451 L66.0326761,29.7012152 L66.0326761,29.7012152 Z M77.3335211,12.8703573 L77.1504225,12.8703573 L76.7395493,12.8703573 C75.6336338,12.8340823 74.3380282,13.1242821 73.4510986,13.6756615 C72.0895775,14.4446908 71.3872113,15.8376494 71.3872113,17.8110074 C71.3872113,20.6252192 72.7934085,22.2365531 75.3055211,22.2365531 C76.0811268,22.2365531 76.7117183,22.0921787 77.4441127,21.8738034 L77.4441127,21.4667983 L77.4441127,19.9294653 C77.4441127,19.269261 77.4067606,18.5365067 77.4067606,17.7674775 L77.3708732,15.17019 L77.3335211,13.3056569 L77.3335211,12.8703573 Z M94.84507,8.2271619 C100.528451,8.2271619 104,11.7748534 104,17.5208077 C104,23.4118619 100.382704,27.1039278 94.617296,27.1039278 C88.9265915,27.1039278 85.4176901,23.5569618 85.4176901,17.8480079 C85.4272113,11.9199532 89.044507,8.2271619 94.84507,8.2271619 Z M94.727887,22.5623023 C96.910423,22.5623023 98.199437,20.7710445 98.199437,17.6586526 C98.199437,14.5825356 96.94631,12.7542774 94.765239,12.7542774 C92.509465,12.7542774 91.2189859,14.5462607 91.2189859,17.6586526 C91.2189859,20.7710445 92.516056,22.5623023 94.727887,22.5623023 L94.727887,22.5623023 Z" id="Shape"></path>
        </g>
    </g>
</svg>