<?xml version="1.0" encoding="UTF-8"?>
<svg width="106px" height="40px" viewBox="0 0 106 40" version="1.1" xmlns="http://www.w3.org/2000/svg" xmlns:xlink="http://www.w3.org/1999/xlink">
    <title>logo-hasura</title>
    <g id="Page-1" stroke="none" stroke-width="1" fill="none" fill-rule="evenodd">
        <g id="logo-hasura" fill="#6B7280" fill-rule="nonzero">
            <path d="M45.6123,22.5115 L43.6661,22.5115 C43.3724,22.5115 43.1384,22.2775 43.1384,21.9838 L43.1384,15.8514 C43.1384,15.5577 42.9045,15.3237 42.6108,15.3237 L40.8985,15.3237 C40.6048,15.3237 40.3708,15.5577 40.3708,15.8514 L40.3708,31.4264 C40.3708,31.7201 40.6048,31.9541 40.8985,31.9541 L42.6108,31.9541 C42.9045,31.9541 43.1384,31.7201 43.1384,31.4264 L43.1384,25.3686 C43.1384,25.075 43.3724,24.841 43.6661,24.841 L45.6123,24.841 C45.906,24.841 46.1399,25.075 46.1399,25.3686 L46.1399,31.4264 C46.1399,31.7201 46.3739,31.9541 46.6676,31.9541 L48.3799,31.9541 C48.6736,31.9541 48.9075,31.7201 48.9075,31.4264 L48.9075,15.8514 C48.9075,15.5577 48.6736,15.3237 48.3799,15.3237 L46.6676,15.3237 C46.3739,15.3237 46.1399,15.5577 46.1399,15.8514 L46.1399,21.9838 C46.1399,22.2775 45.901,22.5115 45.6123,22.5115 Z" id="Path"></path>
            <path d="M54.2436,15.7565 L51.481,31.3316 C51.4213,31.6552 51.6701,31.9538 51.9987,31.9538 L53.6961,31.9538 C53.9549,31.9538 54.1789,31.7647 54.2187,31.5108 L54.6717,28.6536 C54.7115,28.3948 54.9355,28.2106 55.1943,28.2106 L57.3397,28.2106 C57.5985,28.2106 57.8175,28.3948 57.8623,28.6487 L58.3551,31.5208 C58.3999,31.7746 58.619,31.9588 58.8778,31.9588 L60.6001,31.9588 C60.9336,31.9588 61.1824,31.6552 61.1177,31.3316 L58.156,15.7565 C58.1062,15.5077 57.8922,15.3284006 57.6384,15.3284006 L54.7662,15.3284006 C54.5074,15.3235 54.2884,15.5077 54.2436,15.7565 Z M56.7722,25.8761 L55.717,25.8761 C55.3934,25.8761 55.1445,25.5874 55.1943,25.2639 L55.6971,19.5495 C55.7916,18.9572 56.6378,18.9522 56.7374,19.5396 L57.2899,25.2539 C57.3496,25.5775 57.1008,25.8761 56.7722,25.8761 L56.7722,25.8761 Z" id="Shape"></path>
            <path d="M68.5743,22.3073 L66.6878,22.3073 C66.3244,22.3073 66.1303,22.138 66.1303,21.7796 L66.1303,18.1858 C66.1303,17.8274 66.3244,17.6582 66.6878,17.6582 L67.7729,17.6582 C68.1363,17.6582 68.3304,17.8274 68.3304,18.1858 L68.3304,19.8931 C68.3304,20.1868 68.5643,20.4208 68.858,20.4208 L70.5952,20.4208 C70.8889,20.4208 71.1228,20.1868 71.1228,19.8931 L71.1228,17.8224 C71.1228,16.1897 70.2169,15.3286 68.4996,15.3286 L65.966,15.3286 C64.2487,15.3286 63.3428,16.1897 63.3428,17.8224 L63.3428,22.0883 C63.3428,23.7359 64.2338,24.6119 65.9162,24.6119 L67.8276,24.6119 C68.191,24.6119 68.3553,24.7712 68.3553,25.1396 L68.3553,29.0968 C68.3553,29.4651 68.191,29.6294 67.8276,29.6294 L66.7425,29.6294 C66.3791,29.6294 66.185,29.4602 66.185,29.0968 L66.185,27.3895 C66.185,27.0958 65.9511,26.8618 65.6574,26.8618 L63.9202,26.8618 C63.6265,26.8618 63.3926,27.0958 63.3926,27.3895 L63.3926,29.4602 C63.3926,31.0928 64.2985,31.954 66.0158,31.954 L68.5245,31.954 C70.2567,31.954 71.1776,31.0928 71.1776,29.4602 L71.1776,24.8061 C71.1726,23.1684 70.2766,22.3073 68.5743,22.3073 L68.5743,22.3073 Z" id="Path"></path>
            <path d="M79.0473,29.0966 C79.0473,29.465 78.888,29.6293 78.4898,29.6293 L77.0164,29.6293 C76.653,29.6293 76.4589,29.46 76.4589,29.0966 L76.4589,15.8511 C76.4589,15.5574 76.225,15.3235 75.9313,15.3235 L74.1941,15.3235 C73.9004,15.3235 73.6664,15.5574 73.6664,15.8511 L73.6664,29.455 C73.6664,31.0877 74.5823,31.9488 76.3195,31.9488 L79.1916,31.9488 C80.9239,31.9488 81.8447,31.0877 81.8447,29.455 L81.8447,15.8511 C81.8447,15.5574 81.6108,15.3235 81.3171,15.3235 L79.5799,15.3235 C79.2862,15.3235 79.0523,15.5574 79.0523,15.8511 L79.0523,29.0966 L79.0473,29.0966 Z" id="Path"></path>
            <path d="M92.8652,22.8895 L92.8652,17.8173 C92.8652,16.1846 91.9592,15.3235 90.242,15.3235 L85.2494,15.3235 C84.9557,15.3235 84.7217,15.5574 84.7217,15.8511 L84.7217,31.4262 C84.7217,31.7199 84.9557,31.9538 85.2494,31.9538 L86.9617,31.9538 C87.2554,31.9538 87.4893,31.7199 87.4893,31.4262 L87.4893,25.9358 C87.4893,25.6422 87.7233,25.4082 88.0169,25.4082 C88.236,25.4082 88.4351,25.5476 88.5097,25.7517 L90.685,31.6054 C90.7596,31.8144 90.9587,31.9488 91.1778,31.9488 L93.0195,31.9488 C93.3928,31.9488 93.6467,31.5755 93.5123,31.2321 L91.4017,25.7965 C91.2972,25.5326 91.4316,25.2489 91.6855,25.1195 C92.462,24.7462 92.8652,23.9846 92.8652,22.8895 L92.8652,22.8895 Z M90.0976,18.1807 L90.0976,22.5759 C90.0976,22.9343 89.9035,23.1036 89.5401,23.1036 L88.012,23.1036 C87.7183,23.1036 87.4843,22.8696 87.4843,22.5759 L87.4843,18.1757 C87.4843,17.882 87.7183,17.648 88.012,17.648 L89.5401,17.648 C89.9035,17.648 90.0976,17.8223 90.0976,18.1807 L90.0976,18.1807 Z" id="Shape"></path>
            <path d="M102.029,15.3235 L99.157,15.3235 C98.9031,15.3235 98.6841,15.5077 98.6393,15.7615 L95.8767,31.3366 C95.817,31.6601 96.0658,31.9588 96.3944,31.9588 L98.0917,31.9588 C98.3506,31.9588 98.5746,31.7696 98.6144,31.5158 L99.0674,28.6586 C99.1072,28.3998 99.3312,28.2156 99.59,28.2156 L101.735,28.2156 C101.994,28.2156 102.213,28.3998 102.258,28.6536 L102.751,31.5257 C102.796,31.7796 103.015,31.9638 103.273,31.9638 L104.996,31.9638 C105.329,31.9638 105.578,31.6601 105.513,31.3366 L102.552,15.7615 C102.497,15.5027 102.283,15.3235 102.029,15.3235 L102.029,15.3235 Z M101.163,25.8761 L100.108,25.8761 C99.7841,25.8761 99.5353,25.5874 99.585,25.2639 L100.088,20.0523 C100.182,19.4599 101.029,19.4549 101.128,20.0423 L101.681,25.2539 C101.74,25.5774 101.491,25.8761 101.163,25.8761 L101.163,25.8761 Z" id="Shape"></path>
            <path d="M33.3069,13.7963 C34.4072,11.1307 34.4363,5.67071 32.9706,1.43146 C32.5928,0.671637 31.451,0.904153 31.397,1.75117 L31.3804,2.03351 C31.1229,6.01534 29.6573,8.21593 27.4982,9.27055 C27.1453,9.44493 26.5764,9.39926 26.2401,9.18751 C23.6658,7.56405 20.6182,6.62569 17.3506,6.62569 C14.0746,6.62569 11.0228,7.5682 8.4444,9.19996 C8.11639,9.40757 7.70534,9.45739 7.33996,9.32037 C5.13106,8.49411 3.5865,6.10253 3.32492,2.03766 L3.30831,1.75117 C3.25433,0.904153 2.11252,0.671637 1.73468,1.43146 C0.269005,5.67902 0.298069,11.1473 1.40252,13.8087 C1.95474,15.1416 1.9838,16.6405 1.52293,18.0106 C0.937486,19.7545 0.634386,21.6312 0.66345,23.5785 C0.80462,32.3892 8.31569,39.8795 17.1264,39.9958 C26.4477,40.1203 34.0418,32.601 34.0418,23.3087 C34.0418,21.4527 33.7387,19.6673 33.1782,17.9982 C32.7173,16.6321 32.7588,15.1333 33.3069,13.7963 L33.3069,13.7963 Z M17.1097,36.0015 C10.3211,35.8769 4.78644,30.3381 4.65773,23.5495 C4.52486,16.3498 10.3876,10.4829 17.5914,10.6158 C24.38,10.7404 29.9147,16.2792 30.0434,23.0678 C30.1763,30.2675 24.3136,36.1344 17.1097,36.0015 Z" id="Shape"></path>
            <path d="M19.3145,21.947 L16.3416,17.3258 C15.8642,16.5784 14.8635,16.3625 14.1203,16.8441 C13.6553,17.1431 13.3771,17.6496 13.3812,18.2309 C13.3812,18.5382 13.4933,18.8413 13.6594,19.0987 L15.6898,22.2584 C15.8392,22.4909 15.8143,22.794 15.6275,22.9975 L12.4885,26.4561 C11.8948,27.1122 11.9405,28.1294 12.6006,28.7273 C12.9037,29.0013 13.2982,29.1508 13.7092,29.1425 C14.1494,29.1342 14.5729,28.9432 14.8718,28.6152 L17.197,25.879 C17.3755,25.6672 17.7035,25.6838 17.8613,25.9122 L19.5097,28.2872 C19.6259,28.4699 19.7712,28.6401 19.9498,28.7647 C20.5186,29.1674 21.2203,29.155 21.7476,28.8228 C22.2168,28.528 22.4991,28.0215 22.4991,27.4443 C22.4991,27.1371 22.3953,26.834 22.2293,26.5724 L19.3145,21.947 Z" id="Path"></path>
        </g>
    </g>
</svg>