<?xml version="1.0" encoding="UTF-8"?>
<svg width="90px" height="90px" viewBox="0 0 90 90" version="1.1" xmlns="http://www.w3.org/2000/svg" xmlns:xlink="http://www.w3.org/1999/xlink">
    <title>Shape</title>
    <g id="Page-1" stroke="none" stroke-width="1" fill="none" fill-rule="evenodd">
        <g id="logo" fill="#FFFFFF" fill-rule="nonzero">
            <path d="M45,0 C39.5127,0 35,4.51269 35,10 C35,15.4873 39.5127,20 45,20 C50.4873,20 55,15.4873 55,10 C55,4.51269 50.4873,0 45,0 Z M45,6 C47.2447,6 49,7.75533 49,10 C49,12.2447 47.2447,14 45,14 C42.7553,14 41,12.2447 41,10 C41,7.75533 42.7553,6 45,6 Z M20,10 C14.5127,10 10,14.5127 10,20 C10,25.4873 14.5127,30 20,30 C25.4873,30 30,25.4873 30,20 C30,14.5127 25.4873,10 20,10 Z M70,10 C64.5127,10 60,14.5127 60,20 C60,25.4873 64.5127,30 70,30 C75.4873,30 80,25.4873 80,20 C80,14.5127 75.4873,10 70,10 Z M20,16 C22.2447,16 24,17.7553 24,20 C24,22.2447 22.2447,24 20,24 C17.7553,24 16,22.2447 16,20 C16,17.7553 17.7553,16 20,16 Z M70,16 C72.2447,16 74,17.7553 74,20 C74,22.2447 72.2447,24 70,24 C67.7553,24 66,22.2447 66,20 C66,17.7553 67.7553,16 70,16 Z M10,35 C4.51269,35 0,39.5127 0,45 C0,50.4873 4.51269,55 10,55 C15.4873,55 20,50.4873 20,45 C20,39.5127 15.4873,35 10,35 Z M45,35 C39.5127,35 35,39.5127 35,45 C35,50.4873 39.5127,55 45,55 C50.4873,55 55,50.4873 55,45 C55,39.5127 50.4873,35 45,35 Z M80,35 C74.5127,35 70,39.5127 70,45 C70,50.4873 74.5127,55 80,55 C85.4873,55 90,50.4873 90,45 C90,39.5127 85.4873,35 80,35 Z M10,41 C12.2447,41 14,42.7553 14,45 C14,47.2447 12.2447,49 10,49 C7.75533,49 6,47.2447 6,45 C6,42.7553 7.75533,41 10,41 Z M45,41 C47.2447,41 49,42.7553 49,45 C49,47.2447 47.2447,49 45,49 C42.7553,49 41,47.2447 41,45 C41,42.7553 42.7553,41 45,41 Z M80,41 C82.2447,41 84,42.7553 84,45 C84,47.2447 82.2447,49 80,49 C77.7553,49 76,47.2447 76,45 C76,42.7553 77.7553,41 80,41 Z M20,60 C14.5127,60 10,64.5127 10,70 C10,75.4873 14.5127,80 20,80 C25.4873,80 30,75.4873 30,70 C30,64.5127 25.4873,60 20,60 Z M70,60 C64.5127,60 60,64.5127 60,70 C60,75.4873 64.5127,80 70,80 C75.4873,80 80,75.4873 80,70 C80,64.5127 75.4873,60 70,60 Z M20,66 C22.2447,66 24,67.7553 24,70 C24,72.2447 22.2447,74 20,74 C17.7553,74 16,72.2447 16,70 C16,67.7553 17.7553,66 20,66 Z M70,66 C72.2447,66 74,67.7553 74,70 C74,72.2447 72.2447,74 70,74 C67.7553,74 66,72.2447 66,70 C66,67.7553 67.7553,66 70,66 Z M45,70 C39.5127,70 35,74.5127 35,80 C35,85.4873 39.5127,90 45,90 C50.4873,90 55,85.4873 55,80 C55,74.5127 50.4873,70 45,70 Z M45,76 C47.2447,76 49,77.7553 49,80 C49,82.2447 47.2447,84 45,84 C42.7553,84 41,82.2447 41,80 C41,77.7553 42.7553,76 45,76 Z" id="Shape"></path>
        </g>
    </g>
</svg>